<svg width="24" height="13" viewBox="0 0 24 13" fill="none" xmlns="http://www.w3.org/2000/svg">
<path d="M0.432 2.864V0.32H4.864V12H2.016V2.864H0.432ZM6.63963 9.808C7.00229 9.52 7.16763 9.38667 7.13563 9.408C8.18096 8.544 9.00229 7.83467 9.59963 7.28C10.2076 6.72533 10.7196 6.144 11.1356 5.536C11.5516 4.928 11.7596 4.336 11.7596 3.76C11.7596 3.32267 11.6583 2.98133 11.4556 2.736C11.253 2.49067 10.949 2.368 10.5436 2.368C10.1383 2.368 9.81829 2.52267 9.58363 2.832C9.35963 3.13067 9.24763 3.55733 9.24763 4.112H6.60763C6.62896 3.20533 6.82096 2.448 7.18363 1.84C7.55696 1.232 8.04229 0.783999 8.63963 0.495999C9.24763 0.207999 9.91963 0.0639992 10.6556 0.0639992C11.925 0.0639992 12.8796 0.389332 13.5196 1.04C14.1703 1.69067 14.4956 2.53867 14.4956 3.584C14.4956 4.72533 14.1063 5.78667 13.3276 6.768C12.549 7.73867 11.557 8.688 10.3516 9.616H14.6716V11.84H6.63963V9.808ZM15.9723 3.616C16.0149 2.47467 16.3883 1.59467 17.0923 0.976C17.7963 0.357333 18.7509 0.0479994 19.9563 0.0479994C20.7563 0.0479994 21.4389 0.186666 22.0043 0.464C22.5803 0.741333 23.0123 1.12 23.3003 1.6C23.5989 2.08 23.7483 2.61867 23.7483 3.216C23.7483 3.92 23.5723 4.496 23.2203 4.944C22.8683 5.38133 22.4576 5.68 21.9883 5.84V5.904C22.5963 6.10667 23.0763 6.44267 23.4283 6.912C23.7803 7.38133 23.9563 7.984 23.9563 8.72C23.9563 9.38133 23.8016 9.968 23.4923 10.48C23.1936 10.9813 22.7509 11.376 22.1643 11.664C21.5883 11.952 20.9003 12.096 20.1003 12.096C18.8203 12.096 17.7963 11.7813 17.0283 11.152C16.2709 10.5227 15.8709 9.57333 15.8283 8.304H18.4843C18.4949 8.77333 18.6283 9.14667 18.8843 9.424C19.1403 9.69067 19.5136 9.824 20.0043 9.824C20.4203 9.824 20.7403 9.70667 20.9643 9.472C21.1989 9.22667 21.3163 8.90667 21.3163 8.512C21.3163 8 21.1509 7.632 20.8203 7.408C20.5003 7.17333 19.9829 7.056 19.2682 7.056H18.7563V4.832H19.2682C19.8123 4.832 20.2496 4.74133 20.5803 4.56C20.9216 4.368 21.0923 4.032 21.0923 3.552C21.0923 3.168 20.9856 2.86933 20.7723 2.656C20.5589 2.44267 20.2656 2.336 19.8923 2.336C19.4869 2.336 19.1829 2.45867 18.9803 2.704C18.7883 2.94933 18.6763 3.25333 18.6443 3.616H15.9723Z" fill="#F9F9F9"/>
</svg>
