<svg width="90" height="48" viewBox="0 0 90 48" fill="none" xmlns="http://www.w3.org/2000/svg">
<rect x="0.75" y="0.5" width="88.25" height="47" rx="3.5" fill="#F9F9F9"/>
<rect x="0.75" y="0.5" width="88.25" height="47" rx="3.5" stroke="#D9D9D9"/>
<path fill-rule="evenodd" clip-rule="evenodd" d="M28.4766 43.1999V26.5781H37.3822L38.3377 29.0396L39.3248 26.5781H71.6499V42.0536C71.6499 42.0536 70.8046 43.1833 69.8269 43.1999H51.9278L50.8505 40.5797V43.1999H47.3204V38.7271C47.3204 38.7271 46.8382 39.3515 45.7957 39.3515H44.5941V43.1999H39.2492L38.2951 40.6856L37.3264 43.1999H28.4766ZM18.1 14.0526L20.1037 4.80005H23.5689L24.706 9.98293V4.80005H29.0135L29.6905 8.54608L30.3467 4.80005H49.6831V6.6833C49.6831 6.6833 50.6996 4.80005 52.3702 4.80005L58.6441 4.84348L59.7616 9.95853V4.80005H63.3664L64.3585 7.73823V4.80005H67.9964V21.4218H64.3585L63.4077 18.4741V21.4218H58.1115L57.5789 18.8016H56.1551L55.6311 21.4218H52.0394C50.602 21.4218 49.6831 19.577 49.6831 19.577V21.4218H44.2677L43.1929 18.8016V21.4218H23.0555L22.5233 18.8016H21.104L20.5756 21.4218H18.1V14.0526ZM18.1105 19.2896L20.813 6.8438H22.8619L25.5618 19.2896H23.7636L23.2675 16.7974H20.3686L19.87 19.2896H18.1105ZM22.6968 14.0957L21.8132 9.74067L20.927 14.0957H22.6968ZM25.7468 19.2897V6.8438L28.2472 6.86219L29.7015 14.8865L31.1209 6.8438H33.6013V19.2897H32.0304V10.119L30.3652 19.2897H28.9875L27.3177 10.119V19.2897H25.7468ZM34.6762 19.2897V6.8438H39.8022V9.62775H36.2636V11.7566H39.7196V14.3768H36.2636V16.5876H39.8022V19.2897H34.6762ZM40.7136 19.2896V6.8438H44.2094C45.3677 6.8438 46.4055 8.2625 46.4055 10.8815C46.4055 13.1205 45.5305 14.5626 44.6822 14.7043L46.7492 19.2896H44.8295L42.9459 14.8681H42.2845V19.2896H40.7136ZM44.0812 9.62817H42.2855V12.2483H44.1045C44.4193 12.2483 44.8253 11.7651 44.8253 10.9383C44.8253 10.2956 44.512 9.62817 44.0812 9.62817ZM48.6496 19.2897H47.0457V6.8438H48.6496V19.2897ZM52.4544 19.2897H52.1082C50.433 19.2897 49.4159 16.6756 49.4159 13.1179C49.4159 9.47229 50.4216 6.8438 52.5371 6.8438H54.2733V9.7915H52.4736C51.6148 9.7915 51.0075 11.1189 51.0075 13.1486C51.0075 15.5589 51.702 16.5712 52.7024 16.5712H53.1158L52.4544 19.2897ZM53.1677 19.2896L55.8702 6.8438H57.9191L60.619 19.2896H58.8208L58.3247 16.7974H55.4258L54.9272 19.2896H53.1677ZM57.7536 14.0957L56.87 9.74067L55.9838 14.0957H57.7536ZM60.8036 19.2897V6.8438H62.8008L65.3509 14.6634V6.8438H66.9218V19.2897H64.9892L62.3745 11.2654V19.2897H60.8036ZM29.5513 41.077V28.6311H34.6773V31.4151H31.1387V33.544H34.5947V36.1641H31.1387V38.3749H34.6773V41.077H29.5513ZM54.6681 41.077V28.6311H59.7942V31.4151H56.2555V33.544H59.6949V36.1641H56.2555V38.3749H59.7942V41.077H54.6681ZM34.8759 41.077L37.3718 34.9308L34.8165 28.6311H36.7956L38.3174 32.5256L39.8444 28.6311H41.746L39.2243 34.8541L41.7247 41.077H39.7459L38.2683 37.2439L36.8266 41.077H34.8759ZM41.9125 41.0725V28.6266H45.3824C46.8062 28.6266 47.638 30.4442 47.638 32.8127C47.638 35.672 46.5774 37.1422 45.1783 37.1422H43.5247V41.0725H41.9125ZM45.2655 31.4391H43.5241V34.3049H45.2603C45.7191 34.3049 46.0406 33.7027 46.0406 32.872C46.0406 31.9878 45.7175 31.4391 45.2655 31.4391ZM48.3199 41.0725V28.6266H51.8157C52.974 28.6266 54.0118 30.0453 54.0118 32.6643C54.0118 34.9033 53.1368 36.3453 52.2885 36.4871L54.3555 41.0725H52.4358L50.5522 36.6509H49.8908V41.0725H48.3199ZM51.6875 31.411H49.8918V34.0312H51.7108C52.0256 34.0312 52.4316 33.5479 52.4316 32.7211C52.4316 32.0784 52.1183 31.411 51.6875 31.411ZM60.5228 41.077V38.3749H63.6667C64.1318 38.3749 64.3333 37.877 64.3333 37.3309C64.3333 36.8077 64.1325 36.2788 63.6667 36.2788H62.246C61.0111 36.2788 60.3234 34.7885 60.3234 32.5512C60.3234 30.5556 60.9532 28.6311 62.7882 28.6311H65.8473L65.1859 31.4314H62.5402C62.0344 31.4314 61.8787 31.9571 61.8787 32.4591C61.8787 32.975 62.0711 33.544 62.4575 33.544H63.9457C65.3223 33.544 65.9197 35.0906 65.9197 37.116C65.9197 39.2935 65.254 41.077 63.8708 41.077H60.5228ZM66.0565 41.077V38.3749H69.2003C69.6655 38.3749 69.8669 37.877 69.8669 37.3309C69.8669 36.8077 69.6662 36.2788 69.2003 36.2788H67.7797C66.5448 36.2788 65.857 34.7885 65.857 32.5512C65.857 30.5556 66.4868 28.6311 68.3219 28.6311H71.381L70.7196 31.4314H68.0739C67.5681 31.4314 67.4124 31.9571 67.4124 32.4591C67.4124 32.975 67.6048 33.544 67.9912 33.544H69.4794C70.856 33.544 71.4533 35.0906 71.4533 37.116C71.4533 39.2935 70.7877 41.077 69.4044 41.077H66.0565Z" fill="#006FCF"/>
</svg>
