<svg width="67" height="16" viewBox="0 0 67 16" fill="none" xmlns="http://www.w3.org/2000/svg">
<path d="M7.65714 12.3334C9.94781 12.3334 11.8048 10.3933 11.8048 8.00002C11.8048 5.60679 9.94781 3.66669 7.65714 3.66669C5.36648 3.66669 3.50952 5.60679 3.50952 8.00002C3.50952 10.3933 5.36648 12.3334 7.65714 12.3334Z" stroke="white" stroke-width="2" stroke-linejoin="round"/>
<path d="M7.65714 1.99998C8.09765 1.99998 8.45476 1.62688 8.45476 1.16665C8.45476 0.70641 8.09765 0.333313 7.65714 0.333313C7.21663 0.333313 6.85952 0.70641 6.85952 1.16665C6.85952 1.62688 7.21663 1.99998 7.65714 1.99998Z" fill="white"/>
<path d="M12.283 4.00016C12.7235 4.00016 13.0806 3.62706 13.0806 3.16683C13.0806 2.70659 12.7235 2.3335 12.283 2.3335C11.8425 2.3335 11.4854 2.70659 11.4854 3.16683C11.4854 3.62706 11.8425 4.00016 12.283 4.00016Z" fill="white"/>
<path d="M14.198 8.83317C14.6385 8.83317 14.9956 8.46007 14.9956 7.99984C14.9956 7.5396 14.6385 7.1665 14.198 7.1665C13.7575 7.1665 13.4004 7.5396 13.4004 7.99984C13.4004 8.46007 13.7575 8.83317 14.198 8.83317Z" fill="white"/>
<path d="M12.283 13.6667C12.7235 13.6667 13.0806 13.2936 13.0806 12.8333C13.0806 12.3731 12.7235 12 12.283 12C11.8425 12 11.4854 12.3731 11.4854 12.8333C11.4854 13.2936 11.8425 13.6667 12.283 13.6667Z" fill="white"/>
<path d="M7.65714 15.6667C8.09765 15.6667 8.45476 15.2936 8.45476 14.8333C8.45476 14.3731 8.09765 14 7.65714 14C7.21663 14 6.85952 14.3731 6.85952 14.8333C6.85952 15.2936 7.21663 15.6667 7.65714 15.6667Z" fill="white"/>
<path d="M3.03095 13.6667C3.47146 13.6667 3.82857 13.2936 3.82857 12.8333C3.82857 12.3731 3.47146 12 3.03095 12C2.59044 12 2.23333 12.3731 2.23333 12.8333C2.23333 13.2936 2.59044 13.6667 3.03095 13.6667Z" fill="white"/>
<path d="M1.11696 8.83317C1.55747 8.83317 1.91457 8.46007 1.91457 7.99984C1.91457 7.5396 1.55747 7.1665 1.11696 7.1665C0.676443 7.1665 0.319336 7.5396 0.319336 7.99984C0.319336 8.46007 0.676443 8.83317 1.11696 8.83317Z" fill="white"/>
<path d="M3.03095 3.99998C3.47146 3.99998 3.82857 3.62688 3.82857 3.16665C3.82857 2.70641 3.47146 2.33331 3.03095 2.33331C2.59044 2.33331 2.23333 2.70641 2.23333 3.16665C2.23333 3.62688 2.59044 3.99998 3.03095 3.99998Z" fill="white"/>
<g clip-path="url(#clip0_16_3741)">
<path d="M24.8857 12.3334C27.1763 12.3334 29.0333 10.3933 29.0333 8.00002C29.0333 5.60679 27.1763 3.66669 24.8857 3.66669C22.595 3.66669 20.7381 5.60679 20.7381 8.00002C20.7381 10.3933 22.595 12.3334 24.8857 12.3334Z" stroke="white" stroke-width="2" stroke-linejoin="round"/>
<path d="M24.8857 1.99998C25.3262 1.99998 25.6833 1.62688 25.6833 1.16665C25.6833 0.70641 25.3262 0.333313 24.8857 0.333313C24.4452 0.333313 24.0881 0.70641 24.0881 1.16665C24.0881 1.62688 24.4452 1.99998 24.8857 1.99998Z" fill="white"/>
<path d="M29.5115 4.00016C29.952 4.00016 30.3091 3.62706 30.3091 3.16683C30.3091 2.70659 29.952 2.3335 29.5115 2.3335C29.071 2.3335 28.7139 2.70659 28.7139 3.16683C28.7139 3.62706 29.071 4.00016 29.5115 4.00016Z" fill="white"/>
<path d="M31.4265 8.83317C31.8671 8.83317 32.2242 8.46007 32.2242 7.99984C32.2242 7.5396 31.8671 7.1665 31.4265 7.1665C30.986 7.1665 30.6289 7.5396 30.6289 7.99984C30.6289 8.46007 30.986 8.83317 31.4265 8.83317Z" fill="white"/>
<path d="M29.5115 13.6667C29.952 13.6667 30.3091 13.2936 30.3091 12.8333C30.3091 12.3731 29.952 12 29.5115 12C29.071 12 28.7139 12.3731 28.7139 12.8333C28.7139 13.2936 29.071 13.6667 29.5115 13.6667Z" fill="white"/>
<path d="M24.8857 15.6667C25.3262 15.6667 25.6833 15.2936 25.6833 14.8333C25.6833 14.3731 25.3262 14 24.8857 14C24.4452 14 24.0881 14.3731 24.0881 14.8333C24.0881 15.2936 24.4452 15.6667 24.8857 15.6667Z" fill="white"/>
<path d="M20.2595 13.6667C20.7 13.6667 21.0571 13.2936 21.0571 12.8333C21.0571 12.3731 20.7 12 20.2595 12C19.819 12 19.4619 12.3731 19.4619 12.8333C19.4619 13.2936 19.819 13.6667 20.2595 13.6667Z" fill="white"/>
<path d="M18.3455 8.83317C18.786 8.83317 19.1431 8.46007 19.1431 7.99984C19.1431 7.5396 18.786 7.1665 18.3455 7.1665C17.905 7.1665 17.5479 7.5396 17.5479 7.99984C17.5479 8.46007 17.905 8.83317 18.3455 8.83317Z" fill="white"/>
<path d="M20.2595 3.99998C20.7 3.99998 21.0571 3.62688 21.0571 3.16665C21.0571 2.70641 20.7 2.33331 20.2595 2.33331C19.819 2.33331 19.4619 2.70641 19.4619 3.16665C19.4619 3.62688 19.819 3.99998 20.2595 3.99998Z" fill="white"/>
</g>
<g clip-path="url(#clip1_16_3741)">
<path d="M42.1142 12.3334C44.4049 12.3334 46.2618 10.3933 46.2618 8.00002C46.2618 5.60679 44.4049 3.66669 42.1142 3.66669C39.8235 3.66669 37.9666 5.60679 37.9666 8.00002C37.9666 10.3933 39.8235 12.3334 42.1142 12.3334Z" stroke="white" stroke-width="2" stroke-linejoin="round"/>
<path d="M42.1142 1.99998C42.5547 1.99998 42.9118 1.62688 42.9118 1.16665C42.9118 0.70641 42.5547 0.333313 42.1142 0.333313C41.6737 0.333313 41.3166 0.70641 41.3166 1.16665C41.3166 1.62688 41.6737 1.99998 42.1142 1.99998Z" fill="white"/>
<path d="M46.74 4.00016C47.1805 4.00016 47.5377 3.62706 47.5377 3.16683C47.5377 2.70659 47.1805 2.3335 46.74 2.3335C46.2995 2.3335 45.9424 2.70659 45.9424 3.16683C45.9424 3.62706 46.2995 4.00016 46.74 4.00016Z" fill="white"/>
<path d="M48.6551 8.83317C49.0956 8.83317 49.4527 8.46007 49.4527 7.99984C49.4527 7.5396 49.0956 7.1665 48.6551 7.1665C48.2146 7.1665 47.8575 7.5396 47.8575 7.99984C47.8575 8.46007 48.2146 8.83317 48.6551 8.83317Z" fill="white"/>
<path d="M46.74 13.6667C47.1805 13.6667 47.5377 13.2936 47.5377 12.8333C47.5377 12.3731 47.1805 12 46.74 12C46.2995 12 45.9424 12.3731 45.9424 12.8333C45.9424 13.2936 46.2995 13.6667 46.74 13.6667Z" fill="white"/>
<path d="M42.1142 15.6667C42.5547 15.6667 42.9118 15.2936 42.9118 14.8333C42.9118 14.3731 42.5547 14 42.1142 14C41.6737 14 41.3166 14.3731 41.3166 14.8333C41.3166 15.2936 41.6737 15.6667 42.1142 15.6667Z" fill="white"/>
<path d="M37.488 13.6667C37.9285 13.6667 38.2856 13.2936 38.2856 12.8333C38.2856 12.3731 37.9285 12 37.488 12C37.0475 12 36.6904 12.3731 36.6904 12.8333C36.6904 13.2936 37.0475 13.6667 37.488 13.6667Z" fill="white"/>
<path d="M35.574 8.83317C36.0145 8.83317 36.3716 8.46007 36.3716 7.99984C36.3716 7.5396 36.0145 7.1665 35.574 7.1665C35.1335 7.1665 34.7764 7.5396 34.7764 7.99984C34.7764 8.46007 35.1335 8.83317 35.574 8.83317Z" fill="white"/>
<path d="M37.488 3.99998C37.9285 3.99998 38.2856 3.62688 38.2856 3.16665C38.2856 2.70641 37.9285 2.33331 37.488 2.33331C37.0475 2.33331 36.6904 2.70641 36.6904 3.16665C36.6904 3.62688 37.0475 3.99998 37.488 3.99998Z" fill="white"/>
</g>
<g clip-path="url(#clip2_16_3741)">
<path d="M59.3427 12.3334C61.6334 12.3334 63.4904 10.3933 63.4904 8.00002C63.4904 5.60679 61.6334 3.66669 59.3427 3.66669C57.0521 3.66669 55.1951 5.60679 55.1951 8.00002C55.1951 10.3933 57.0521 12.3334 59.3427 12.3334Z" stroke="white" stroke-width="2" stroke-linejoin="round"/>
<path d="M59.3428 1.99998C59.7833 1.99998 60.1404 1.62688 60.1404 1.16665C60.1404 0.70641 59.7833 0.333313 59.3428 0.333313C58.9022 0.333313 58.5451 0.70641 58.5451 1.16665C58.5451 1.62688 58.9022 1.99998 59.3428 1.99998Z" fill="white"/>
<path d="M63.9686 4.00016C64.4091 4.00016 64.7662 3.62706 64.7662 3.16683C64.7662 2.70659 64.4091 2.3335 63.9686 2.3335C63.5281 2.3335 63.171 2.70659 63.171 3.16683C63.171 3.62706 63.5281 4.00016 63.9686 4.00016Z" fill="white"/>
<path d="M65.8836 8.83317C66.3241 8.83317 66.6812 8.46007 66.6812 7.99984C66.6812 7.5396 66.3241 7.1665 65.8836 7.1665C65.4431 7.1665 65.086 7.5396 65.086 7.99984C65.086 8.46007 65.4431 8.83317 65.8836 8.83317Z" fill="white"/>
<path d="M63.9686 13.6667C64.4091 13.6667 64.7662 13.2936 64.7662 12.8333C64.7662 12.3731 64.4091 12 63.9686 12C63.5281 12 63.171 12.3731 63.171 12.8333C63.171 13.2936 63.5281 13.6667 63.9686 13.6667Z" fill="white"/>
<path d="M59.3428 15.6667C59.7833 15.6667 60.1404 15.2936 60.1404 14.8333C60.1404 14.3731 59.7833 14 59.3428 14C58.9022 14 58.5451 14.3731 58.5451 14.8333C58.5451 15.2936 58.9022 15.6667 59.3428 15.6667Z" fill="white"/>
<path d="M54.7166 13.6667C55.1571 13.6667 55.5142 13.2936 55.5142 12.8333C55.5142 12.3731 55.1571 12 54.7166 12C54.276 12 53.9189 12.3731 53.9189 12.8333C53.9189 13.2936 54.276 13.6667 54.7166 13.6667Z" fill="white"/>
<path d="M52.8026 8.83317C53.2431 8.83317 53.6002 8.46007 53.6002 7.99984C53.6002 7.5396 53.2431 7.1665 52.8026 7.1665C52.3621 7.1665 52.0049 7.5396 52.0049 7.99984C52.0049 8.46007 52.3621 8.83317 52.8026 8.83317Z" fill="white"/>
<path d="M54.7166 3.99998C55.1571 3.99998 55.5142 3.62688 55.5142 3.16665C55.5142 2.70641 55.1571 2.33331 54.7166 2.33331C54.276 2.33331 53.9189 2.70641 53.9189 3.16665C53.9189 3.62688 54.276 3.99998 54.7166 3.99998Z" fill="white"/>
</g>
<defs>
<clipPath id="clip0_16_3741">
<rect width="15.3143" height="16" fill="white" transform="translate(17.2285)"/>
</clipPath>
<clipPath id="clip1_16_3741">
<rect width="15.3143" height="16" fill="white" transform="translate(34.4571)"/>
</clipPath>
<clipPath id="clip2_16_3741">
<rect width="15.3143" height="16" fill="white" transform="translate(51.6856)"/>
</clipPath>
</defs>
</svg>
