<svg width="90" height="48" viewBox="0 0 90 48" fill="none" xmlns="http://www.w3.org/2000/svg">
<rect x="1" y="0.5" width="88.25" height="47" rx="3.5" fill="#F9F9F9"/>
<rect x="1" y="0.5" width="88.25" height="47" rx="3.5" stroke="#D9D9D9"/>
<path fill-rule="evenodd" clip-rule="evenodd" d="M34.9017 36.1378V37.7777V39.4175H34.0632V39.0193C33.7973 39.3147 33.3937 39.5 32.8452 39.5C31.7638 39.5 30.916 38.7798 30.916 37.7777C30.916 36.7763 31.7638 36.0553 32.8452 36.0553C33.3937 36.0553 33.7973 36.2407 34.0632 36.536V36.1378H34.9017ZM32.9495 36.7281C32.2237 36.7281 31.7795 37.2016 31.7795 37.7781C31.7795 38.3546 32.2237 38.8282 32.9495 38.8282C33.643 38.8282 34.1112 38.375 34.1112 37.7781C34.1112 37.1812 33.643 36.7281 32.9495 36.7281ZM63.2375 37.7781C63.2375 37.2016 63.6817 36.7281 64.4075 36.7281C65.102 36.7281 65.5692 37.1812 65.5692 37.7781C65.5692 38.375 65.102 38.8282 64.4075 38.8282C63.6817 38.8282 63.2375 38.3546 63.2375 37.7781ZM66.3607 34.8207V37.7777V39.4175H65.5212V39.0193C65.2553 39.3147 64.8517 39.5 64.3032 39.5C63.2218 39.5 62.3741 38.7798 62.3741 37.7777C62.3741 36.7763 63.2218 36.0553 64.3032 36.0553C64.8517 36.0553 65.2553 36.2407 65.5212 36.536V34.8207H66.3607ZM45.3104 36.6927C45.8506 36.6927 46.1978 36.981 46.2865 37.4883H44.2853C44.3749 37.0147 44.7129 36.6927 45.3104 36.6927ZM43.406 37.7777C43.406 36.7551 44.1964 36.0553 45.3268 36.0553C46.4072 36.0553 47.1497 36.7551 47.158 37.7777C47.158 37.8735 47.1497 37.963 47.1414 38.0518H44.2777C44.3987 38.6424 44.8909 38.8552 45.4311 38.8552C45.8181 38.8552 46.2299 38.7311 46.5531 38.512L46.9641 39.0406C46.4959 39.3767 45.964 39.5 45.3831 39.5C44.2288 39.5 43.406 38.8206 43.406 37.7777ZM55.4518 37.7781C55.4518 37.2016 55.896 36.7281 56.6219 36.7281C57.3154 36.7281 57.7836 37.1812 57.7836 37.7781C57.7836 38.375 57.3154 38.8282 56.6219 38.8282C55.896 38.8282 55.4518 38.3546 55.4518 37.7781ZM58.574 36.1378V37.7777V39.4175L57.7355 39.4175V39.0193C57.4686 39.3147 57.066 39.5 56.5174 39.5C55.436 39.5 54.5883 38.7798 54.5883 37.7777C54.5883 36.7763 55.436 36.0553 56.5174 36.0553C57.066 36.0553 57.4686 36.2407 57.7355 36.536V36.1378H58.574ZM50.7161 37.7777C50.7161 38.7727 51.5306 39.5 52.7736 39.5C53.3545 39.5 53.7414 39.39 54.1606 39.1089L53.758 38.5324C53.4431 38.7248 53.1125 38.8277 52.7487 38.8277C52.0791 38.8206 51.5869 38.4091 51.5869 37.7777C51.5869 37.1462 52.0791 36.7347 52.7487 36.7276C53.1125 36.7276 53.4431 36.8305 53.758 37.0229L54.1606 36.4464C53.7414 36.1653 53.3545 36.0553 52.7736 36.0553C51.5306 36.0553 50.7161 36.7826 50.7161 37.7777ZM60.5105 36.5364C60.7284 36.2482 61.0433 36.0558 61.5272 36.0558C61.6972 36.0558 61.9391 36.0833 62.1247 36.1453L61.8662 36.8176C61.6889 36.7556 61.5115 36.7351 61.3416 36.7351C60.7931 36.7351 60.5188 37.0367 60.5188 37.5794V39.418H59.6794V36.1383L60.5105 36.1383V36.5364ZM39.049 36.3985C38.6454 36.1723 38.0895 36.0553 37.4763 36.0553C36.4993 36.0553 35.8704 36.4535 35.8704 37.1054C35.8704 37.6402 36.3386 37.9701 37.2011 38.073L37.5973 38.1209C38.0572 38.1759 38.2742 38.2787 38.2742 38.4641C38.2742 38.7178 37.9676 38.8623 37.395 38.8623C36.8142 38.8623 36.3949 38.7044 36.1123 38.5191L35.7171 39.0743C36.177 39.3626 36.7578 39.5 37.3867 39.5C38.5004 39.5 39.1459 39.0539 39.1459 38.4295C39.1459 37.8531 38.638 37.5515 37.7986 37.4486L37.4033 37.3999C37.0404 37.3591 36.7495 37.2978 36.7495 37.0779C36.7495 36.8376 37.0238 36.6938 37.4837 36.6938C37.9759 36.6938 38.4524 36.8517 38.686 36.975L39.049 36.3985ZM48.8528 36.5364C49.0698 36.2482 49.3847 36.0558 49.8686 36.0558C50.0385 36.0558 50.2805 36.0833 50.4661 36.1453L50.2075 36.8176C50.0302 36.7556 49.8529 36.7351 49.683 36.7351C49.1344 36.7351 48.8602 37.0367 48.8602 37.5794V39.418H48.0217V36.1383H48.8528V36.5364ZM42.7123 36.1378H41.3409V35.1427H40.4932V36.1378H39.711V36.7897H40.4932V38.2858C40.4932 39.0468 40.8404 39.5 41.8322 39.5C42.1961 39.5 42.6153 39.4042 42.8813 39.2463L42.6393 38.6353C42.3891 38.7586 42.1148 38.8206 41.8969 38.8206C41.4776 38.8206 41.3409 38.6007 41.3409 38.2717V36.7897H42.7123V36.1378ZM30.1744 37.3595V39.418H29.3267V37.5928C29.3267 37.0367 29.0524 36.7281 28.4799 36.7281C27.923 36.7281 27.5361 37.0305 27.5361 37.5999V39.418H26.6883V37.5928C26.6883 37.0367 26.4067 36.7281 25.8498 36.7281C25.2763 36.7281 24.9051 37.0305 24.9051 37.5999V39.418H24.0583V36.1383H24.8977V36.5427C25.2126 36.1587 25.6153 36.0558 26.0271 36.0558C26.6163 36.0558 27.0356 36.2757 27.3015 36.6393C27.657 36.1791 28.165 36.0487 28.6572 36.0558C29.5936 36.0629 30.1744 36.5844 30.1744 37.3595Z" fill="#231F20"/>
<path d="M51.4798 30.5649H38.771V11.1409H51.4798V30.5649Z" fill="#FF5F00"/>
<path d="M39.3382 20.8538C39.3382 16.9136 41.4786 13.4037 44.8117 11.1418C42.3743 9.48781 39.2981 8.50059 35.955 8.50059C28.0406 8.50059 21.625 14.0312 21.625 20.8538C21.625 27.6764 28.0406 33.207 35.955 33.207C39.2981 33.207 42.3743 32.2198 44.8117 30.5658C41.4786 28.3039 39.3382 24.7941 39.3382 20.8538Z" fill="#EB001B"/>
<path d="M68.3117 21.0188C68.3117 27.7502 61.8963 33.207 53.9822 33.207C50.6392 33.207 47.5632 32.233 45.125 30.6011C48.4589 28.3694 50.5991 24.9064 50.5991 21.0188C50.5991 17.1311 48.4589 13.6681 45.125 11.4364C47.5632 9.80452 50.6392 8.83048 53.9822 8.83048C61.8963 8.83048 68.3117 14.2873 68.3117 21.0188Z" fill="#F79E1B"/>
</svg>
