<svg width="20" height="20" viewBox="0 0 20 20" fill="none" xmlns="http://www.w3.org/2000/svg">
<g filter="url(#filter0_b_16_3783)">
<rect x="0.5" y="0.5" width="19" height="19" rx="3.5" stroke="white"/>
<path d="M3.65 10.08C3.02333 9.74667 2.71 9.22333 2.71 8.51C2.71 8.15 2.80333 7.82333 2.99 7.53C3.17667 7.23 3.46 6.99333 3.84 6.82C4.22 6.64 4.68667 6.55 5.24 6.55C5.79333 6.55 6.25667 6.64 6.63 6.82C7.01 6.99333 7.29333 7.23 7.48 7.53C7.66667 7.82333 7.76 8.15 7.76 8.51C7.76 8.87 7.67333 9.18333 7.5 9.45C7.33333 9.71667 7.10667 9.92667 6.82 10.08C7.18 10.2533 7.45667 10.4933 7.65 10.8C7.84333 11.1 7.94 11.4533 7.94 11.86C7.94 12.3333 7.82 12.7433 7.58 13.09C7.34 13.43 7.01333 13.69 6.6 13.87C6.19333 14.05 5.74 14.14 5.24 14.14C4.74 14.14 4.28333 14.05 3.87 13.87C3.46333 13.69 3.14 13.43 2.9 13.09C2.66 12.7433 2.54 12.3333 2.54 11.86C2.54 11.4467 2.63667 11.09 2.83 10.79C3.02333 10.4833 3.29667 10.2467 3.65 10.08ZM6.1 8.77C6.1 8.49667 6.02 8.28667 5.86 8.14C5.70667 7.98667 5.5 7.91 5.24 7.91C4.98 7.91 4.77 7.98667 4.61 8.14C4.45667 8.29333 4.38 8.50667 4.38 8.78C4.38 9.04 4.46 9.24667 4.62 9.4C4.78 9.54667 4.98667 9.62 5.24 9.62C5.49333 9.62 5.7 9.54333 5.86 9.39C6.02 9.23667 6.1 9.03 6.1 8.77ZM5.24 10.82C4.92667 10.82 4.67333 10.9067 4.48 11.08C4.28667 11.2467 4.19 11.48 4.19 11.78C4.19 12.06 4.28333 12.29 4.47 12.47C4.66333 12.65 4.92 12.74 5.24 12.74C5.56 12.74 5.81 12.65 5.99 12.47C6.17667 12.29 6.27 12.06 6.27 11.78C6.27 11.4867 6.17333 11.2533 5.98 11.08C5.79333 10.9067 5.54667 10.82 5.24 10.82ZM10.9444 12.42L9.83438 15.29H8.74438L9.32438 12.42H10.9444ZM11.7455 12.63C11.9721 12.45 12.0755 12.3667 12.0555 12.38C12.7088 11.84 13.2221 11.3967 13.5955 11.05C13.9755 10.7033 14.2955 10.34 14.5555 9.96C14.8155 9.58 14.9455 9.21 14.9455 8.85C14.9455 8.57667 14.8821 8.36333 14.7555 8.21C14.6288 8.05667 14.4388 7.98 14.1855 7.98C13.9321 7.98 13.7321 8.07667 13.5855 8.27C13.4455 8.45667 13.3755 8.72333 13.3755 9.07H11.7255C11.7388 8.50333 11.8588 8.03 12.0855 7.65C12.3188 7.27 12.6221 6.99 12.9955 6.81C13.3755 6.63 13.7955 6.54 14.2555 6.54C15.0488 6.54 15.6455 6.74333 16.0455 7.15C16.4521 7.55667 16.6555 8.08667 16.6555 8.74C16.6555 9.45333 16.4121 10.1167 15.9255 10.73C15.4388 11.3367 14.8188 11.93 14.0655 12.51H16.7655V13.9H11.7455V12.63Z" fill="white"/>
</g>
<defs>
<filter id="filter0_b_16_3783" x="-4" y="-4" width="28" height="28" filterUnits="userSpaceOnUse" color-interpolation-filters="sRGB">
<feFlood flood-opacity="0" result="BackgroundImageFix"/>
<feGaussianBlur in="BackgroundImageFix" stdDeviation="2"/>
<feComposite in2="SourceAlpha" operator="in" result="effect1_backgroundBlur_16_3783"/>
<feBlend mode="normal" in="SourceGraphic" in2="effect1_backgroundBlur_16_3783" result="shape"/>
</filter>
</defs>
</svg>
