<svg width="90" height="48" viewBox="0 0 90 48" fill="none" xmlns="http://www.w3.org/2000/svg">
<rect x="1.25" y="0.5" width="88.25" height="47" rx="3.5" fill="#F9F9F9"/>
<rect x="1.25" y="0.5" width="88.25" height="47" rx="3.5" stroke="#D9D9D9"/>
<path fill-rule="evenodd" clip-rule="evenodd" d="M23.6282 17H19.17C18.8649 17 18.6054 17.2019 18.5578 17.4764L16.7547 27.8897C16.7189 28.0953 16.8936 28.2804 17.1224 28.2804H19.2507C19.5558 28.2804 19.8153 28.0787 19.863 27.8037L20.3492 24.995C20.3961 24.72 20.6562 24.5181 20.9607 24.5181H22.372C25.3087 24.5181 27.0035 23.2236 27.4463 20.6585C27.6457 19.5361 27.4547 18.6544 26.8777 18.0369C26.2441 17.3588 25.1202 17 23.6282 17ZM24.1425 20.8037C23.8987 22.2609 22.6765 22.2609 21.4947 22.2609H20.8218L21.2938 19.5395C21.322 19.375 21.4783 19.2539 21.6609 19.2539H21.9693C22.7743 19.2539 23.5337 19.2539 23.9261 19.6719C24.1602 19.9212 24.2318 20.2918 24.1425 20.8037Z" fill="#28356A"/>
<path fill-rule="evenodd" clip-rule="evenodd" d="M37.0685 20.6791H34.9336C34.7517 20.6791 34.5945 20.8001 34.5666 20.9646L34.472 21.5085L34.3228 21.3114C33.8607 20.7003 32.8299 20.4961 31.8014 20.4961C29.4421 20.4961 27.4271 22.1238 27.0348 24.4069C26.8308 25.5458 27.1208 26.6349 27.8301 27.3943C28.4807 28.0925 29.4116 28.3836 30.519 28.3836C32.42 28.3836 33.4739 27.2702 33.4739 27.2702L33.3788 27.8106C33.343 28.0172 33.5178 28.2025 33.7453 28.2025H35.6682C35.974 28.2025 36.2322 28.0006 36.2804 27.7256L37.4342 21.0698C37.4707 20.8648 37.2965 20.6791 37.0685 20.6791ZM34.0926 24.464C33.8866 25.5749 32.9187 26.3207 31.684 26.3207C31.064 26.3207 30.5687 26.1396 30.2504 25.7964C29.9349 25.4556 29.8151 24.9704 29.9153 24.4301C30.1078 23.3286 31.092 22.5584 32.3079 22.5584C32.9141 22.5584 33.4069 22.742 33.7316 23.088C34.0568 23.4377 34.1859 23.9259 34.0926 24.464Z" fill="#28356A"/>
<path fill-rule="evenodd" clip-rule="evenodd" d="M48.2741 20.8438H46.1287C45.924 20.8438 45.7317 20.9364 45.6157 21.0914L42.6568 25.0614L41.4026 21.2463C41.3237 21.0076 41.0819 20.8438 40.808 20.8438H38.7C38.4436 20.8438 38.2658 21.0718 38.3472 21.2915L40.7104 27.6082L38.4887 30.465C38.314 30.6901 38.49 30.9995 38.7918 30.9995H40.9346C41.138 30.9995 41.3283 30.9091 41.4437 30.7573L48.5791 21.3752C48.75 21.1508 48.5745 20.8438 48.2741 20.8438Z" fill="#28356A"/>
<path fill-rule="evenodd" clip-rule="evenodd" d="M55.4263 17H50.9676C50.6632 17 50.4037 17.2019 50.356 17.4764L48.5529 27.8897C48.5171 28.0953 48.6919 28.2804 48.9194 28.2804H51.2075C51.4198 28.2804 51.6017 28.1392 51.6349 27.9468L52.1467 24.995C52.1937 24.72 52.4539 24.5181 52.7583 24.5181H54.169C57.1062 24.5181 58.8005 23.2236 59.2438 20.6585C59.4439 19.5361 59.2517 18.6544 58.6747 18.0369C58.0416 17.3588 56.9185 17 55.4263 17ZM55.9409 20.8037C55.6976 22.2609 54.4754 22.2609 53.2929 22.2609H52.6209L53.0935 19.5395C53.1214 19.375 53.2766 19.2539 53.4598 19.2539H53.7682C54.5725 19.2539 55.3326 19.2539 55.725 19.6719C55.9591 19.9212 56.0301 20.2918 55.9409 20.8037Z" fill="#298FC2"/>
<path fill-rule="evenodd" clip-rule="evenodd" d="M68.8634 20.6791H66.7298C66.5467 20.6791 66.3909 20.8001 66.3635 20.9646L66.2689 21.5085L66.119 21.3114C65.6569 20.7003 64.6269 20.4961 63.5981 20.4961C61.239 20.4961 59.2248 22.1238 58.8324 24.4069C58.629 25.5458 58.9177 26.6349 59.6269 27.3943C60.2789 28.0925 61.2083 28.3836 62.3159 28.3836C64.2168 28.3836 65.2709 27.2702 65.2709 27.2702L65.1757 27.8106C65.1399 28.0172 65.3145 28.2025 65.5435 28.2025H67.4658C67.7702 28.2025 68.0297 28.0006 68.0773 27.7256L69.2317 21.0698C69.2669 20.8648 69.0922 20.6791 68.8634 20.6791ZM65.8876 24.464C65.6829 25.5749 64.7135 26.3207 63.4788 26.3207C62.8602 26.3207 62.3635 26.1396 62.0452 25.7964C61.7299 25.4556 61.6112 24.9704 61.7102 24.4301C61.9039 23.3286 62.8868 22.5584 64.1027 22.5584C64.7089 22.5584 65.2017 22.742 65.5264 23.088C65.8529 23.4377 65.982 23.9259 65.8876 24.464Z" fill="#298FC2"/>
<path fill-rule="evenodd" clip-rule="evenodd" d="M71.2027 17.2862L69.3729 27.8902C69.3371 28.0958 69.5117 28.2809 69.7392 28.2809H71.5788C71.8847 28.2809 72.144 28.0792 72.1909 27.8042L73.9953 17.3914C74.0313 17.1858 73.8565 17 73.629 17H71.5692C71.3873 17.0005 71.2308 17.1218 71.2027 17.2862Z" fill="#298FC2"/>
</svg>
