<svg width="20" height="20" viewBox="0 0 20 20" fill="none" xmlns="http://www.w3.org/2000/svg">
<path d="M17.4085 8.586C17.5138 7.87942 17.4793 7.15604 17.3048 6.4605C17.0745 5.54167 16.6 4.6715 15.8814 3.95296C15.1629 3.23442 14.2927 2.75996 13.3739 2.52957C12.6784 2.35516 11.955 2.32062 11.2484 2.42594" stroke="#07689F" stroke-linecap="round" stroke-linejoin="round"/>
<path d="M14.2453 8.25144C14.3581 7.49452 14.1232 6.69577 13.5405 6.11311C12.9578 5.53044 12.1591 5.29548 11.4022 5.40831" stroke="#07689F" stroke-linecap="round" stroke-linejoin="round"/>
<path d="M5.98947 3.66431C6.29222 3.66431 6.57114 3.82848 6.71805 4.09316L7.73743 5.92934C7.87089 6.16975 7.87714 6.46054 7.75418 6.7065L6.77218 8.6705C6.77218 8.6705 7.05676 10.1336 8.24776 11.3246C9.43876 12.5156 10.897 12.7953 10.897 12.7953L12.8607 11.8135C13.1068 11.6904 13.3978 11.6968 13.6383 11.8305L15.4797 12.8542C15.7441 13.0012 15.9081 13.28 15.9081 13.5825V15.6965C15.9081 16.773 14.9081 17.5506 13.8881 17.2064C11.7931 16.4995 8.54118 15.1536 6.48001 13.0924C4.4188 11.0312 3.07289 7.77925 2.366 5.68429C2.02182 4.66425 2.79936 3.66431 3.87588 3.66431H5.98947Z" stroke="#07689F" stroke-linejoin="round"/>
</svg>
