<svg width="40" height="40" viewBox="0 0 40 40" fill="none" xmlns="http://www.w3.org/2000/svg">
<rect width="40" height="40" rx="4" fill="#F9F9F9"/>
<path d="M28.8901 18.3033C29.0165 17.4554 28.9751 16.5874 28.7658 15.7527C28.4893 14.6501 27.9199 13.6059 27.0577 12.7437C26.1954 11.8814 25.1512 11.312 24.0487 11.0356C23.214 10.8263 22.3459 10.7848 21.498 10.9112" stroke="#043E5F" stroke-width="2" stroke-linecap="round" stroke-linejoin="round"/>
<path d="M25.0943 17.9017C25.2297 16.9934 24.9478 16.0349 24.2486 15.3357C23.5494 14.6365 22.5909 14.3546 21.6826 14.49" stroke="#043E5F" stroke-width="2" stroke-linecap="round" stroke-linejoin="round"/>
<path d="M15.1874 12.3972C15.5507 12.3972 15.8854 12.5942 16.0617 12.9118L17.2849 15.1153C17.4451 15.4038 17.4526 15.7527 17.305 16.0479L16.1266 18.4047C16.1266 18.4047 16.4681 20.1604 17.8973 21.5896C19.3265 23.0188 21.0764 23.3544 21.0764 23.3544L23.4328 22.1762C23.7282 22.0285 24.0774 22.0362 24.366 22.1966L26.5756 23.4251C26.8929 23.6015 27.0897 23.9361 27.0897 24.2991V26.8359C27.0897 28.1277 25.8898 29.0608 24.6657 28.6477C22.1518 27.7995 18.2494 26.1844 15.776 23.7109C13.3026 21.2375 11.6875 17.3352 10.8392 14.8212C10.4262 13.5972 11.3592 12.3972 12.651 12.3972H15.1874Z" stroke="#043E5F" stroke-width="2" stroke-linejoin="round"/>
</svg>
