<svg width="41" height="40" viewBox="0 0 41 40" fill="none" xmlns="http://www.w3.org/2000/svg">
<rect x="41" y="40" width="41" height="40" rx="4" transform="rotate(-180 41 40)" fill="#EFEFEF"/>
<path d="M37.925 37.7305H36.4711V36.312H37.925V37.7305ZM36.4711 37.7305H35.0172V36.312H36.4711V37.7305ZM35.0172 37.7305H33.5633V36.312H35.0172V37.7305ZM33.5633 37.7305H32.1094V36.312H33.5633V37.7305ZM32.1094 37.7305H30.6555V36.312H32.1094V37.7305ZM30.6555 37.7305H29.2016V36.312H30.6555V37.7305ZM29.2016 37.7305H27.7477V36.312H29.2016V37.7305ZM21.9321 37.7305H20.4782V36.312H21.9321V37.7305ZM17.5704 37.7305H16.1165V36.312H17.5704V37.7305ZM16.1165 37.7305H14.6626V36.312H16.1165V37.7305ZM14.6626 37.7305H13.2087V36.312H14.6626V37.7305ZM11.7548 37.7305H10.3009V36.312H11.7548V37.7305ZM10.3009 37.7305L8.84703 37.7305V36.312H10.3009V37.7305ZM8.84703 37.7305H7.39313V36.312L8.84703 36.312V37.7305ZM7.39313 37.7305H5.93923V36.312H7.39313V37.7305ZM5.93923 37.7305H4.48533V36.312H5.93923V37.7305ZM4.48533 37.7305H3.03143V36.312H4.48533V37.7305ZM3.03143 37.7305H1.57753V36.312H3.03143V37.7305ZM37.925 36.312H36.4711V34.8936H37.925V36.312ZM29.2016 36.312H27.7477V34.8936H29.2016V36.312ZM24.8399 36.312H23.386V34.8936H24.8399V36.312ZM19.0243 36.312H17.5704V34.8936H19.0243V36.312ZM17.5704 36.312H16.1165V34.8936H17.5704V36.312ZM14.6626 36.312H13.2087V34.8936H14.6626V36.312ZM11.7548 36.312H10.3009V34.8936H11.7548V36.312ZM3.03143 36.312H1.57753V34.8936H3.03143V36.312ZM37.925 34.8936H36.4711V33.4751H37.925V34.8936ZM35.0172 34.8936H33.5633V33.4751H35.0172V34.8936ZM33.5633 34.8936H32.1094V33.4751H33.5633V34.8936ZM32.1094 34.8936H30.6555V33.4751H32.1094V34.8936ZM29.2016 34.8936H27.7477V33.4751H29.2016V34.8936ZM24.8399 34.8936H23.386V33.4751H24.8399V34.8936ZM23.386 34.8936H21.9321V33.4751H23.386V34.8936ZM20.4782 34.8936H19.0243V33.4751H20.4782V34.8936ZM17.5704 34.8936H16.1165V33.4751H17.5704V34.8936ZM16.1165 34.8936H14.6626V33.4751H16.1165V34.8936ZM11.7548 34.8936H10.3009V33.4751H11.7548V34.8936ZM8.84703 34.8936H7.39313V33.4751H8.84703V34.8936ZM7.39313 34.8936L5.93923 34.8936V33.4751H7.39313V34.8936ZM5.93923 34.8936H4.48533V33.4751L5.93923 33.4751V34.8936ZM3.03143 34.8936H1.57753V33.4751H3.03143V34.8936ZM37.925 33.4751H36.4711V32.0567H37.925V33.4751ZM35.0172 33.4751H33.5633V32.0567H35.0172V33.4751ZM33.5633 33.4751H32.1094V32.0567H33.5633V33.4751ZM32.1094 33.4751H30.6555V32.0567H32.1094V33.4751ZM29.2016 33.4751H27.7477V32.0567H29.2016V33.4751ZM26.2938 33.4751H24.8399V32.0567H26.2938V33.4751ZM24.8399 33.4751H23.386V32.0567H24.8399V33.4751ZM20.4782 33.4751H19.0243V32.0567H20.4782V33.4751ZM17.5704 33.4751H16.1165V32.0567H17.5704V33.4751ZM16.1165 33.4751H14.6626V32.0567H16.1165V33.4751ZM11.7548 33.4751H10.3009V32.0567H11.7548V33.4751ZM8.84703 33.4751H7.39313V32.0567H8.84703V33.4751ZM7.39313 33.4751H5.93923V32.0567H7.39313V33.4751ZM5.93923 33.4751L4.48533 33.4751V32.0567L5.93923 32.0567V33.4751ZM3.03143 33.4751H1.57753V32.0567H3.03143V33.4751ZM37.925 32.0567H36.4711V30.6383H37.925V32.0567ZM35.0172 32.0567H33.5633V30.6383H35.0172V32.0567ZM33.5633 32.0567H32.1094V30.6383H33.5633V32.0567ZM32.1094 32.0567H30.6555V30.6383H32.1094V32.0567ZM29.2016 32.0567H27.7477V30.6383H29.2016V32.0567ZM23.386 32.0567H21.9321V30.6383H23.386V32.0567ZM21.9321 32.0567H20.4782V30.6383H21.9321V32.0567ZM20.4782 32.0567H19.0243V30.6383L20.4782 30.6383V32.0567ZM19.0243 32.0567H17.5704V30.6383H19.0243V32.0567ZM17.5704 32.0567H16.1165V30.6383H17.5704V32.0567ZM11.7548 32.0567H10.3009V30.6383H11.7548V32.0567ZM8.84703 32.0567H7.39313V30.6383H8.84703V32.0567ZM7.39313 32.0567H5.93923V30.6383H7.39313V32.0567ZM5.93923 32.0567L4.48533 32.0567V30.6383H5.93923V32.0567ZM3.03143 32.0567H1.57753V30.6383H3.03143V32.0567ZM37.925 30.6383H36.4711V29.2198H37.925V30.6383ZM29.2016 30.6383H27.7477V29.2198H29.2016V30.6383ZM26.2938 30.6383H24.8399V29.2198H26.2938V30.6383ZM21.9321 30.6383H20.4782V29.2198H21.9321V30.6383ZM14.6626 30.6383H13.2087V29.2198H14.6626V30.6383ZM11.7548 30.6383H10.3009V29.2198H11.7548V30.6383ZM3.03143 30.6383H1.57753V29.2198L3.03143 29.2198V30.6383ZM37.925 29.2198H36.4711V27.8014H37.925V29.2198ZM36.4711 29.2198H35.0172V27.8014H36.4711V29.2198ZM35.0172 29.2198H33.5633V27.8014H35.0172V29.2198ZM33.5633 29.2198H32.1094V27.8014H33.5633V29.2198ZM32.1094 29.2198H30.6555V27.8014H32.1094V29.2198ZM30.6555 29.2198H29.2016V27.8014H30.6555V29.2198ZM29.2016 29.2198H27.7477V27.8014H29.2016V29.2198ZM26.2938 29.2198H24.8399V27.8014H26.2938V29.2198ZM23.386 29.2198H21.9321V27.8014H23.386V29.2198ZM20.4782 29.2198H19.0243V27.8014H20.4782V29.2198ZM17.5704 29.2198L16.1165 29.2198V27.8014L17.5704 27.8014V29.2198ZM14.6626 29.2198H13.2087V27.8014H14.6626V29.2198ZM11.7548 29.2198H10.3009V27.8014H11.7548V29.2198ZM10.3009 29.2198H8.84703V27.8014H10.3009V29.2198ZM8.84703 29.2198H7.39313V27.8014H8.84703V29.2198ZM7.39313 29.2198H5.93923V27.8014H7.39313V29.2198ZM5.93923 29.2198H4.48533V27.8014H5.93923V29.2198ZM4.48533 29.2198H3.03143V27.8014H4.48533V29.2198ZM3.03143 29.2198L1.57753 29.2198V27.8014L3.03143 27.8014V29.2198ZM26.2938 27.8014H24.8399V26.383H26.2938V27.8014ZM24.8399 27.8014H23.386V26.383H24.8399V27.8014ZM23.386 27.8014H21.9321V26.383H23.386V27.8014ZM17.5704 27.8014L16.1165 27.8014V26.383L17.5704 26.383V27.8014ZM16.1165 27.8014H14.6626V26.383H16.1165V27.8014ZM14.6626 27.8014H13.2087V26.383H14.6626V27.8014ZM36.4711 26.383H35.0172V24.9645H36.4711V26.383ZM35.0172 26.383H33.5633V24.9645H35.0172V26.383ZM29.2016 26.383H27.7477V24.9645H29.2016V26.383ZM19.0243 26.383H17.5704V24.9645H19.0243V26.383ZM17.5704 26.383L16.1165 26.383V24.9645L17.5704 24.9645V26.383ZM14.6626 26.383H13.2087V24.9645H14.6626V26.383ZM11.7548 26.383H10.3009V24.9645H11.7548V26.383ZM10.3009 26.383H8.84703V24.9645H10.3009V26.383ZM7.39313 26.383H5.93923V24.9645H7.39313V26.383ZM36.4711 24.9645H35.0172V23.5461H36.4711V24.9645ZM35.0172 24.9645H33.5633V23.5461H35.0172V24.9645ZM32.1094 24.9645H30.6555V23.5461H32.1094V24.9645ZM27.7477 24.9645H26.2938V23.5461H27.7477V24.9645ZM23.386 24.9645H21.9321V23.5461H23.386V24.9645ZM21.9321 24.9645H20.4782V23.5461H21.9321V24.9645ZM20.4782 24.9645H19.0243V23.5461H20.4782V24.9645ZM19.0243 24.9645H17.5704V23.5461H19.0243V24.9645ZM17.5704 24.9645L16.1165 24.9645V23.5461L17.5704 23.5461V24.9645ZM16.1165 24.9645H14.6626V23.5461H16.1165V24.9645ZM14.6626 24.9645H13.2087V23.5461H14.6626V24.9645ZM11.7548 24.9645H10.3009V23.5461H11.7548V24.9645ZM10.3009 24.9645H8.84703V23.5461H10.3009V24.9645ZM7.39313 24.9645H5.93923V23.5461H7.39313V24.9645ZM4.48533 24.9645H3.03143V23.5461H4.48533V24.9645ZM3.03143 24.9645L1.57753 24.9645V23.5461L3.03143 23.5461V24.9645ZM29.2016 23.5461H27.7477V22.1276H29.2016V23.5461ZM21.9321 23.5461H20.4782L20.4782 22.1276H21.9321V23.5461ZM16.1165 23.5461H14.6626L14.6626 22.1276H16.1165L16.1165 23.5461ZM13.2087 23.5461H11.7548L11.7548 22.1276H13.2087L13.2087 23.5461ZM10.3009 23.5461H8.84703L8.84703 22.1276H10.3009L10.3009 23.5461ZM7.39313 23.5461H5.93923L5.93923 22.1276H7.39313L7.39313 23.5461ZM5.93923 23.5461H4.48533V22.1276H5.93923L5.93923 23.5461ZM3.03143 23.5461L1.57753 23.5461V22.1276L3.03143 22.1276V23.5461ZM37.925 22.1276H36.4711V20.7092H37.925V22.1276ZM36.4711 22.1276H35.0172V20.7092H36.4711V22.1276ZM32.1094 22.1276H30.6555V20.7092H32.1094V22.1276ZM27.7477 22.1276H26.2938V20.7092H27.7477V22.1276ZM24.8399 22.1276H23.386V20.7092L24.8399 20.7092V22.1276ZM23.386 22.1276H21.9321V20.7092H23.386V22.1276ZM19.0243 22.1276H17.5704V20.7092H19.0243V22.1276ZM16.1165 22.1276H14.6626V20.7092H16.1165V22.1276ZM13.2087 22.1276H11.7548V20.7092H13.2087V22.1276ZM10.3009 22.1276H8.84703V20.7092H10.3009V22.1276ZM7.39313 22.1276H5.93923V20.7092H7.39313V22.1276ZM37.925 20.7092H36.4711V19.2908H37.925V20.7092ZM36.4711 20.7092H35.0172V19.2908H36.4711V20.7092ZM33.5633 20.7092H32.1094V19.2908H33.5633V20.7092ZM29.2016 20.7092H27.7477V19.2908H29.2016V20.7092ZM27.7477 20.7092H26.2938V19.2908H27.7477V20.7092ZM26.2938 20.7092H24.8399V19.2908H26.2938V20.7092ZM24.8399 20.7092L23.386 20.7092V19.2908L24.8399 19.2908V20.7092ZM23.386 20.7092H21.9321V19.2908H23.386V20.7092ZM19.0243 20.7092H17.5704V19.2908H19.0243V20.7092ZM16.1165 20.7092H14.6626V19.2908H16.1165V20.7092ZM14.6626 20.7092H13.2087V19.2908H14.6626V20.7092ZM11.7548 20.7092H10.3009V19.2908H11.7548V20.7092ZM10.3009 20.7092H8.84703V19.2908H10.3009V20.7092ZM3.03143 20.7092H1.57753V19.2908H3.03143V20.7092ZM35.0172 19.2908H33.5633V17.8723H35.0172V19.2908ZM33.5633 19.2908H32.1094V17.8723H33.5633V19.2908ZM32.1094 19.2908H30.6555V17.8723H32.1094V19.2908ZM23.386 19.2908H21.9321V17.8723H23.386V19.2908ZM21.9321 19.2908H20.4782V17.8723H21.9321V19.2908ZM20.4782 19.2908H19.0243V17.8723H20.4782V19.2908ZM16.1165 19.2908H14.6626V17.8723H16.1165V19.2908ZM14.6626 19.2908H13.2087V17.8723H14.6626V19.2908ZM11.7548 19.2908H10.3009V17.8723H11.7548V19.2908ZM10.3009 19.2908H8.84703V17.8723H10.3009V19.2908ZM4.48533 19.2908H3.03143V17.8723H4.48533V19.2908ZM3.03143 19.2908H1.57753V17.8723H3.03143V19.2908ZM37.925 17.8723H36.4711V16.4539H37.925V17.8723ZM36.4711 17.8723H35.0172V16.4539H36.4711V17.8723ZM33.5633 17.8723H32.1094V16.4539H33.5633V17.8723ZM30.6555 17.8723H29.2016V16.4539H30.6555V17.8723ZM29.2016 17.8723H27.7477V16.4539H29.2016V17.8723ZM26.2938 17.8723H24.8399V16.4539H26.2938V17.8723ZM24.8399 17.8723L23.386 17.8723V16.4539L24.8399 16.4539V17.8723ZM23.386 17.8723H21.9321V16.4539H23.386V17.8723ZM20.4782 17.8723H19.0243V16.4539H20.4782V17.8723ZM16.1165 17.8723H14.6626V16.4539H16.1165V17.8723ZM14.6626 17.8723H13.2087V16.4539H14.6626V17.8723ZM11.7548 17.8723H10.3009V16.4539H11.7548V17.8723ZM7.39313 17.8723H5.93923V16.4539H7.39313V17.8723ZM5.93923 17.8723H4.48533V16.4539H5.93923V17.8723ZM3.03143 17.8723H1.57753V16.4539H3.03143V17.8723ZM35.0172 16.4539H33.5633V15.0354H35.0172V16.4539ZM33.5633 16.4539H32.1094V15.0354H33.5633V16.4539ZM32.1094 16.4539H30.6555V15.0354H32.1094V16.4539ZM27.7477 16.4539H26.2938L26.2938 15.0354H27.7477L27.7477 16.4539ZM23.386 16.4539H21.9321L21.9321 15.0354H23.386L23.386 16.4539ZM17.5704 16.4539H16.1165V15.0354H17.5704V16.4539ZM16.1165 16.4539H14.6626V15.0354H16.1165V16.4539ZM14.6626 16.4539H13.2087V15.0354H14.6626V16.4539ZM13.2087 16.4539H11.7548V15.0354H13.2087V16.4539ZM11.7548 16.4539H10.3009V15.0354H11.7548V16.4539ZM10.3009 16.4539H8.84703V15.0354H10.3009V16.4539ZM8.84703 16.4539H7.39313V15.0354H8.84703V16.4539ZM7.39313 16.4539H5.93923V15.0354H7.39313V16.4539ZM37.925 15.0354H36.4711V13.617H37.925V15.0354ZM36.4711 15.0354H35.0172V13.617H36.4711V15.0354ZM35.0172 15.0354H33.5633V13.617H35.0172V15.0354ZM32.1094 15.0354H30.6555V13.617H32.1094V15.0354ZM29.2016 15.0354H27.7477V13.617H29.2016V15.0354ZM26.2938 15.0354H24.8399V13.617H26.2938V15.0354ZM21.9321 15.0354H20.4782V13.617H21.9321V15.0354ZM14.6626 15.0354H13.2087V13.617H14.6626V15.0354ZM13.2087 15.0354H11.7548V13.617H13.2087V15.0354ZM11.7548 15.0354H10.3009V13.617H11.7548V15.0354ZM10.3009 15.0354H8.84703V13.617H10.3009V15.0354ZM8.84703 15.0354H7.39313V13.617H8.84703V15.0354ZM4.48533 15.0354H3.03143V13.617H4.48533V15.0354ZM26.2938 13.617H24.8399V12.1986H26.2938V13.617ZM24.8399 13.617L23.386 13.617V12.1986L24.8399 12.1986V13.617ZM23.386 13.617H21.9321V12.1986H23.386V13.617ZM21.9321 13.617H20.4782V12.1986H21.9321V13.617ZM19.0243 13.617H17.5704V12.1986H19.0243V13.617ZM17.5704 13.617H16.1165V12.1986H17.5704V13.617ZM14.6626 13.617H13.2087V12.1986H14.6626V13.617ZM8.84703 13.617H7.39313V12.1986H8.84703V13.617ZM3.03143 13.617H1.57753V12.1986H3.03143V13.617ZM37.925 12.1986H36.4711V10.7801H37.925V12.1986ZM36.4711 12.1986H35.0172V10.7801H36.4711V12.1986ZM35.0172 12.1986H33.5633V10.7801H35.0172V12.1986ZM33.5633 12.1986H32.1094V10.7801H33.5633V12.1986ZM32.1094 12.1986H30.6555V10.7801H32.1094V12.1986ZM30.6555 12.1986H29.2016V10.7801H30.6555V12.1986ZM29.2016 12.1986H27.7477V10.7801H29.2016V12.1986ZM23.386 12.1986H21.9321V10.7801H23.386V12.1986ZM21.9321 12.1986H20.4782V10.7801H21.9321V12.1986ZM17.5704 12.1986H16.1165V10.7801H17.5704V12.1986ZM14.6626 12.1986H13.2087V10.7801H14.6626V12.1986ZM11.7548 12.1986H10.3009V10.7801H11.7548V12.1986ZM8.84703 12.1986H7.39313V10.7801H8.84703V12.1986ZM3.03143 12.1986H1.57753V10.7801H3.03143V12.1986ZM37.925 10.7801H36.4711V9.36167H37.925V10.7801ZM29.2016 10.7801H27.7477V9.36167H29.2016V10.7801ZM24.8399 10.7801L23.386 10.7801V9.36167L24.8399 9.36167V10.7801ZM23.386 10.7801H21.9321V9.36167H23.386V10.7801ZM20.4782 10.7801H19.0243V9.36167H20.4782V10.7801ZM19.0243 10.7801H17.5704V9.36167H19.0243V10.7801ZM14.6626 10.7801H13.2087V9.36167H14.6626V10.7801ZM8.84703 10.7801H7.39313V9.36167H8.84703V10.7801ZM4.48533 10.7801H3.03143V9.36167H4.48533V10.7801ZM37.925 9.36167H36.4711V7.94323H37.925L37.925 9.36167ZM35.0172 9.36167H33.5633V7.94323H35.0172V9.36167ZM33.5633 9.36167H32.1094V7.94323H33.5633V9.36167ZM32.1094 9.36167H30.6555V7.94323H32.1094V9.36167ZM29.2016 9.36167H27.7477V7.94323H29.2016V9.36167ZM24.8399 9.36167L23.386 9.36167V7.94323L24.8399 7.94323V9.36167ZM23.386 9.36167H21.9321V7.94323H23.386V9.36167ZM17.5704 9.36167H16.1165V7.94323H17.5704V9.36167ZM16.1165 9.36167H14.6626V7.94323H16.1165V9.36167ZM14.6626 9.36167H13.2087V7.94323H14.6626V9.36167ZM13.2087 9.36167H11.7548V7.94323H13.2087V9.36167ZM11.7548 9.36167H10.3009V7.94323H11.7548V9.36167ZM10.3009 9.36167H8.84703V7.94323H10.3009V9.36167ZM8.84703 9.36167H7.39313V7.94323H8.84703V9.36167ZM4.48533 9.36167H3.03143L3.03143 7.94323H4.48533L4.48533 9.36167ZM3.03143 9.36167H1.57753L1.57753 7.94323H3.03143L3.03143 9.36167ZM37.925 7.94323H36.4711L36.4711 6.52479H37.925V7.94323ZM35.0172 7.94323H33.5633V6.52479H35.0172L35.0172 7.94323ZM33.5633 7.94323H32.1094V6.52479H33.5633V7.94323ZM32.1094 7.94323H30.6555V6.52479H32.1094V7.94323ZM29.2016 7.94323H27.7477V6.52479H29.2016V7.94323ZM24.8399 7.94323L23.386 7.94323V6.52479L24.8399 6.52479V7.94323ZM23.386 7.94323H21.9321V6.52479H23.386V7.94323ZM21.9321 7.94323H20.4782V6.52479H21.9321V7.94323ZM20.4782 7.94323H19.0243V6.52479H20.4782V7.94323ZM16.1165 7.94323H14.6626V6.52479H16.1165V7.94323ZM13.2087 7.94323H11.7548V6.52479H13.2087V7.94323ZM8.84703 7.94323H7.39313V6.52479H8.84703V7.94323ZM5.93923 7.94323H4.48533V6.52479H5.93923V7.94323ZM4.48533 7.94323H3.03143V6.52479H4.48533V7.94323ZM37.925 6.52479H36.4711V5.10635H37.925V6.52479ZM35.0172 6.52479H33.5633V5.10635H35.0172V6.52479ZM33.5633 6.52479H32.1094V5.10635H33.5633V6.52479ZM32.1094 6.52479H30.6555V5.10635H32.1094V6.52479ZM29.2016 6.52479H27.7477V5.10635H29.2016V6.52479ZM26.2938 6.52479H24.8399V5.10635H26.2938V6.52479ZM19.0243 6.52479H17.5704V5.10635H19.0243V6.52479ZM17.5704 6.52479H16.1165V5.10635H17.5704V6.52479ZM16.1165 6.52479H14.6626V5.10635H16.1165V6.52479ZM14.6626 6.52479H13.2087V5.10635H14.6626V6.52479ZM13.2087 6.52479H11.7548V5.10635H13.2087V6.52479ZM10.3009 6.52479H8.84703V5.10635L10.3009 5.10635V6.52479ZM8.84703 6.52479H7.39313V5.10635H8.84703V6.52479ZM7.39313 6.52479H5.93923V5.10635H7.39313V6.52479ZM4.48533 6.52479H3.03143V5.10635H4.48533V6.52479ZM3.03143 6.52479H1.57753V5.10635H3.03143V6.52479ZM37.925 5.10635H36.4711V3.68792H37.925V5.10635ZM29.2016 5.10635H27.7477V3.68792H29.2016V5.10635ZM26.2938 5.10635H24.8399V3.68792H26.2938V5.10635ZM24.8399 5.10635H23.386V3.68792H24.8399V5.10635ZM23.386 5.10635H21.9321V3.68792H23.386V5.10635ZM19.0243 5.10635H17.5704V3.68792H19.0243V5.10635ZM14.6626 5.10635H13.2087V3.68792H14.6626V5.10635ZM13.2087 5.10635H11.7548V3.68792H13.2087V5.10635ZM11.7548 5.10635H10.3009V3.68792H11.7548V5.10635ZM10.3009 5.10635L8.84703 5.10635V3.68792L10.3009 3.68792V5.10635ZM8.84703 5.10635H7.39313V3.68792H8.84703V5.10635ZM37.925 3.68792H36.4711V2.26947H37.925V3.68792ZM36.4711 3.68792H35.0172V2.26947H36.4711V3.68792ZM35.0172 3.68792H33.5633V2.26947H35.0172V3.68792ZM33.5633 3.68792H32.1094V2.26947H33.5633V3.68792ZM32.1094 3.68792H30.6555V2.26947H32.1094V3.68792ZM30.6555 3.68792H29.2016V2.26947H30.6555V3.68792ZM29.2016 3.68792H27.7477V2.26947H29.2016V3.68792ZM23.386 3.68792H21.9321V2.26947H23.386V3.68792ZM20.4782 3.68792H19.0243V2.26947H20.4782V3.68792ZM14.6626 3.68792H13.2087V2.26947H14.6626V3.68792ZM11.7548 3.68792H10.3009V2.26947H11.7548V3.68792ZM7.39313 3.68792H5.93923V2.26947H7.39313V3.68792ZM3.03143 3.68792H1.57753V2.26947H3.03143V3.68792Z" fill="black"/>
</svg>
