<svg width="40" height="40" viewBox="0 0 40 40" fill="none" xmlns="http://www.w3.org/2000/svg">
<rect width="40" height="40" fill="#F9F9F9"/>
<rect width="40" height="40" rx="4" fill="#F9F9F9"/>
<g clip-path="url(#clip0_1_1455)">
<path d="M20 28.3333C22.3011 28.3333 24.3845 27.4006 25.8925 25.8925C27.4005 24.3845 28.3333 22.3012 28.3333 20C28.3333 17.6988 27.4005 15.6155 25.8925 14.1074C24.3845 12.5994 22.3011 11.6667 20 11.6667C17.6988 11.6667 15.6155 12.5994 14.1074 14.1074C12.5994 15.6155 11.6666 17.6988 11.6666 20C11.6666 22.3012 12.5994 24.3845 14.1074 25.8925C15.6155 27.4006 17.6988 28.3333 20 28.3333Z" stroke="#043E5F" stroke-width="2" stroke-linejoin="round"/>
<path d="M20 21.927V20.2603C21.3807 20.2603 22.5 19.141 22.5 17.7603C22.5 16.3796 21.3807 15.2603 20 15.2603C18.6193 15.2603 17.5 16.3796 17.5 17.7603" stroke="#043E5F" stroke-width="2" stroke-linecap="round" stroke-linejoin="round"/>
<path fill-rule="evenodd" clip-rule="evenodd" d="M20 25.677C20.5753 25.677 21.0417 25.2106 21.0417 24.6353C21.0417 24.06 20.5753 23.5937 20 23.5937C19.4247 23.5937 18.9584 24.06 18.9584 24.6353C18.9584 25.2106 19.4247 25.677 20 25.677Z" fill="#043E5F"/>
</g>
<defs>
<clipPath id="clip0_1_1455">
<rect width="20" height="20" fill="white" transform="translate(10 10)"/>
</clipPath>
</defs>
</svg>
