<svg width="90" height="48" viewBox="0 0 90 48" fill="none" xmlns="http://www.w3.org/2000/svg">
<rect x="0.5" y="0.5" width="88.25" height="47" rx="3.5" fill="#F9F9F9"/>
<rect x="0.5" y="0.5" width="88.25" height="47" rx="3.5" stroke="#D9D9D9"/>
<path fill-rule="evenodd" clip-rule="evenodd" d="M30.3131 30.8903H25.3585L21.6431 20.0295C21.4668 19.5299 21.0923 19.0882 20.5415 18.8801C19.167 18.3569 17.6523 17.9406 16 17.7306V17.3125H23.9815C25.0831 17.3125 25.9093 17.9406 26.0469 18.6701L27.9747 26.5044L32.9269 17.3125H37.7438L30.3131 30.8903ZM40.4979 30.8903H35.8186L39.6717 17.3125H44.3509L40.4979 30.8903ZM50.4048 21.0746C50.5425 20.3433 51.3686 19.9252 52.3325 19.9252C53.8472 19.8202 55.4971 20.0302 56.874 20.5515L57.7002 17.6281C56.3233 17.21 54.8086 17 53.4341 17C48.8925 17 45.5878 18.8807 45.5878 21.4909C45.5878 23.4767 47.9287 24.5193 49.581 25.1474C51.3686 25.7737 52.0571 26.1919 51.9194 26.8182C51.9194 27.7576 50.5425 28.1758 49.1679 28.1758C47.5156 28.1758 45.8632 27.8626 44.351 27.3395L43.5248 30.2647C45.1772 30.786 46.9648 30.996 48.6171 30.996C53.7095 31.0991 56.874 29.2202 56.874 26.4C56.874 22.8485 50.4048 22.6404 50.4048 21.0746ZM73.2501 30.8903L69.5348 17.3125H65.544C64.7178 17.3125 63.8917 17.7306 63.6163 18.3569L56.7363 30.8903H61.5533L62.5147 28.9064H68.4332L68.984 30.8903H73.2501ZM66.2325 20.9688L67.607 26.086H63.754L66.2325 20.9688Z" fill="#172B85"/>
</svg>
